<mxfile host="app.diagrams.net" modified="2022-12-24T03:44:16.299Z" agent="5.0 (Windows NT 10.0; Win64; x64) AppleWebKit/537.36 (KHTML, like Gecko) Chrome/108.0.0.0 Safari/537.36" version="20.7.4" etag="4ChHH0SRl6cYtxcvcRvK" type="github">
  <diagram id="w6Qg5yiR-06B_CqP0gwN" name="第 1 页">
    <mxGraphModel dx="2261" dy="796" grid="1" gridSize="10" guides="1" tooltips="1" connect="1" arrows="1" fold="1" page="1" pageScale="1" pageWidth="827" pageHeight="1169" math="0" shadow="0">
      <root>
        <mxCell id="0" />
        <mxCell id="1" parent="0" />
        <mxCell id="4zKLB1q-K7LCKmaBFXye-3" style="edgeStyle=orthogonalEdgeStyle;rounded=0;orthogonalLoop=1;jettySize=auto;html=1;entryX=0;entryY=0.5;entryDx=0;entryDy=0;" edge="1" parent="1" source="4zKLB1q-K7LCKmaBFXye-1" target="4zKLB1q-K7LCKmaBFXye-2">
          <mxGeometry relative="1" as="geometry" />
        </mxCell>
        <mxCell id="4zKLB1q-K7LCKmaBFXye-1" value="基站" style="rounded=0;whiteSpace=wrap;html=1;" vertex="1" parent="1">
          <mxGeometry x="20" y="160" width="170" height="60" as="geometry" />
        </mxCell>
        <mxCell id="4zKLB1q-K7LCKmaBFXye-5" style="edgeStyle=orthogonalEdgeStyle;rounded=0;orthogonalLoop=1;jettySize=auto;html=1;entryX=0;entryY=0.5;entryDx=0;entryDy=0;" edge="1" parent="1" source="4zKLB1q-K7LCKmaBFXye-2" target="4zKLB1q-K7LCKmaBFXye-4">
          <mxGeometry relative="1" as="geometry" />
        </mxCell>
        <mxCell id="4zKLB1q-K7LCKmaBFXye-2" value="" style="rounded=1;whiteSpace=wrap;html=1;" vertex="1" parent="1">
          <mxGeometry x="270" y="160" width="130" height="60" as="geometry" />
        </mxCell>
        <mxCell id="4zKLB1q-K7LCKmaBFXye-4" value="" style="whiteSpace=wrap;html=1;aspect=fixed;" vertex="1" parent="1">
          <mxGeometry x="470" y="150" width="80" height="80" as="geometry" />
        </mxCell>
        <mxCell id="4zKLB1q-K7LCKmaBFXye-6" value="Cross-Functional Flowchart" style="shape=table;childLayout=tableLayout;startSize=40;collapsible=0;recursiveResize=0;expand=0;fontStyle=1;" vertex="1" parent="1">
          <mxGeometry x="20" y="290" width="780" height="400" as="geometry" />
        </mxCell>
        <mxCell id="4zKLB1q-K7LCKmaBFXye-7" value="Actor 1" style="shape=tableRow;horizontal=0;startSize=40;swimlaneHead=0;swimlaneBody=0;top=0;left=0;bottom=0;right=0;dropTarget=0;fillColor=none;collapsible=0;recursiveResize=0;expand=0;fontStyle=1;" vertex="1" parent="4zKLB1q-K7LCKmaBFXye-6">
          <mxGeometry y="40" width="780" height="120" as="geometry" />
        </mxCell>
        <mxCell id="4zKLB1q-K7LCKmaBFXye-8" value="Phase 1" style="swimlane;swimlaneHead=0;swimlaneBody=0;fontStyle=0;connectable=0;fillColor=none;startSize=40;collapsible=0;recursiveResize=0;expand=0;fontStyle=1;" vertex="1" parent="4zKLB1q-K7LCKmaBFXye-7">
          <mxGeometry x="40" width="205" height="120" as="geometry">
            <mxRectangle width="205" height="120" as="alternateBounds" />
          </mxGeometry>
        </mxCell>
        <mxCell id="4zKLB1q-K7LCKmaBFXye-9" value="Phase 2" style="swimlane;swimlaneHead=0;swimlaneBody=0;fontStyle=0;connectable=0;fillColor=none;startSize=40;collapsible=0;recursiveResize=0;expand=0;fontStyle=1;" vertex="1" parent="4zKLB1q-K7LCKmaBFXye-7">
          <mxGeometry x="245" width="289" height="120" as="geometry">
            <mxRectangle width="289" height="120" as="alternateBounds" />
          </mxGeometry>
        </mxCell>
        <mxCell id="4zKLB1q-K7LCKmaBFXye-10" value="Phase 3" style="swimlane;swimlaneHead=0;swimlaneBody=0;fontStyle=0;connectable=0;fillColor=none;startSize=40;collapsible=0;recursiveResize=0;expand=0;fontStyle=1;" vertex="1" parent="4zKLB1q-K7LCKmaBFXye-7">
          <mxGeometry x="534" width="246" height="120" as="geometry">
            <mxRectangle width="246" height="120" as="alternateBounds" />
          </mxGeometry>
        </mxCell>
        <mxCell id="4zKLB1q-K7LCKmaBFXye-11" value="Actor 2" style="shape=tableRow;horizontal=0;startSize=40;swimlaneHead=0;swimlaneBody=0;top=0;left=0;bottom=0;right=0;dropTarget=0;fillColor=none;collapsible=0;recursiveResize=0;expand=0;fontStyle=1;" vertex="1" parent="4zKLB1q-K7LCKmaBFXye-6">
          <mxGeometry y="160" width="780" height="120" as="geometry" />
        </mxCell>
        <mxCell id="4zKLB1q-K7LCKmaBFXye-12" value="" style="swimlane;swimlaneHead=0;swimlaneBody=0;fontStyle=0;connectable=0;fillColor=none;startSize=0;collapsible=0;recursiveResize=0;expand=0;fontStyle=1;" vertex="1" parent="4zKLB1q-K7LCKmaBFXye-11">
          <mxGeometry x="40" width="205" height="120" as="geometry">
            <mxRectangle width="205" height="120" as="alternateBounds" />
          </mxGeometry>
        </mxCell>
        <mxCell id="4zKLB1q-K7LCKmaBFXye-13" value="" style="swimlane;swimlaneHead=0;swimlaneBody=0;fontStyle=0;connectable=0;fillColor=none;startSize=0;collapsible=0;recursiveResize=0;expand=0;fontStyle=1;" vertex="1" parent="4zKLB1q-K7LCKmaBFXye-11">
          <mxGeometry x="245" width="289" height="120" as="geometry">
            <mxRectangle width="289" height="120" as="alternateBounds" />
          </mxGeometry>
        </mxCell>
        <mxCell id="4zKLB1q-K7LCKmaBFXye-14" value="" style="swimlane;swimlaneHead=0;swimlaneBody=0;fontStyle=0;connectable=0;fillColor=none;startSize=0;collapsible=0;recursiveResize=0;expand=0;fontStyle=1;" vertex="1" parent="4zKLB1q-K7LCKmaBFXye-11">
          <mxGeometry x="534" width="246" height="120" as="geometry">
            <mxRectangle width="246" height="120" as="alternateBounds" />
          </mxGeometry>
        </mxCell>
        <mxCell id="4zKLB1q-K7LCKmaBFXye-15" value="Actor 3" style="shape=tableRow;horizontal=0;startSize=40;swimlaneHead=0;swimlaneBody=0;top=0;left=0;bottom=0;right=0;dropTarget=0;fillColor=none;collapsible=0;recursiveResize=0;expand=0;fontStyle=1;" vertex="1" parent="4zKLB1q-K7LCKmaBFXye-6">
          <mxGeometry y="280" width="780" height="120" as="geometry" />
        </mxCell>
        <mxCell id="4zKLB1q-K7LCKmaBFXye-16" value="" style="swimlane;swimlaneHead=0;swimlaneBody=0;fontStyle=0;connectable=0;fillColor=none;startSize=0;collapsible=0;recursiveResize=0;expand=0;fontStyle=1;" vertex="1" parent="4zKLB1q-K7LCKmaBFXye-15">
          <mxGeometry x="40" width="205" height="120" as="geometry">
            <mxRectangle width="205" height="120" as="alternateBounds" />
          </mxGeometry>
        </mxCell>
        <mxCell id="4zKLB1q-K7LCKmaBFXye-17" value="" style="swimlane;swimlaneHead=0;swimlaneBody=0;fontStyle=0;connectable=0;fillColor=none;startSize=0;collapsible=0;recursiveResize=0;expand=0;fontStyle=1;" vertex="1" parent="4zKLB1q-K7LCKmaBFXye-15">
          <mxGeometry x="245" width="289" height="120" as="geometry">
            <mxRectangle width="289" height="120" as="alternateBounds" />
          </mxGeometry>
        </mxCell>
        <mxCell id="4zKLB1q-K7LCKmaBFXye-18" value="" style="swimlane;swimlaneHead=0;swimlaneBody=0;fontStyle=0;connectable=0;fillColor=none;startSize=0;collapsible=0;recursiveResize=0;expand=0;fontStyle=1;" vertex="1" parent="4zKLB1q-K7LCKmaBFXye-15">
          <mxGeometry x="534" width="246" height="120" as="geometry">
            <mxRectangle width="246" height="120" as="alternateBounds" />
          </mxGeometry>
        </mxCell>
        <mxCell id="4zKLB1q-K7LCKmaBFXye-22" style="edgeStyle=orthogonalEdgeStyle;rounded=0;orthogonalLoop=1;jettySize=auto;html=1;" edge="1" parent="1" source="4zKLB1q-K7LCKmaBFXye-19" target="4zKLB1q-K7LCKmaBFXye-20">
          <mxGeometry relative="1" as="geometry" />
        </mxCell>
        <mxCell id="4zKLB1q-K7LCKmaBFXye-19" value="" style="shape=manualInput;whiteSpace=wrap;html=1;" vertex="1" parent="1">
          <mxGeometry x="790" y="150" width="80" height="80" as="geometry" />
        </mxCell>
        <mxCell id="4zKLB1q-K7LCKmaBFXye-21" style="edgeStyle=orthogonalEdgeStyle;rounded=0;orthogonalLoop=1;jettySize=auto;html=1;entryX=1;entryY=0.5;entryDx=0;entryDy=0;" edge="1" parent="1" source="4zKLB1q-K7LCKmaBFXye-20" target="4zKLB1q-K7LCKmaBFXye-4">
          <mxGeometry relative="1" as="geometry" />
        </mxCell>
        <mxCell id="4zKLB1q-K7LCKmaBFXye-20" value="" style="whiteSpace=wrap;html=1;" vertex="1" parent="1">
          <mxGeometry x="610" y="160" width="120" height="60" as="geometry" />
        </mxCell>
        <mxCell id="4zKLB1q-K7LCKmaBFXye-23" value="" style="ellipse;whiteSpace=wrap;html=1;aspect=fixed;" vertex="1" parent="1">
          <mxGeometry x="-100" y="290" width="80" height="80" as="geometry" />
        </mxCell>
        <mxCell id="4zKLB1q-K7LCKmaBFXye-24" value="" style="shape=xor;whiteSpace=wrap;html=1;" vertex="1" parent="1">
          <mxGeometry x="-170" y="50" width="60" height="80" as="geometry" />
        </mxCell>
        <mxCell id="4zKLB1q-K7LCKmaBFXye-25" value="" style="shape=flexArrow;endArrow=classic;html=1;rounded=0;" edge="1" parent="1">
          <mxGeometry width="50" height="50" relative="1" as="geometry">
            <mxPoint x="-150" y="480" as="sourcePoint" />
            <mxPoint x="-100" y="430" as="targetPoint" />
          </mxGeometry>
        </mxCell>
        <mxCell id="4zKLB1q-K7LCKmaBFXye-26" value="" style="endArrow=classic;html=1;rounded=0;" edge="1" parent="1">
          <mxGeometry width="50" height="50" relative="1" as="geometry">
            <mxPoint x="-240" y="470" as="sourcePoint" />
            <mxPoint x="-190" y="420" as="targetPoint" />
          </mxGeometry>
        </mxCell>
        <mxCell id="4zKLB1q-K7LCKmaBFXye-27" value="Label" style="label;whiteSpace=wrap;html=1;image=img/clipart/Gear_128x128.png" vertex="1" parent="1">
          <mxGeometry x="-190" y="570" width="140" height="60" as="geometry" />
        </mxCell>
      </root>
    </mxGraphModel>
  </diagram>
</mxfile>
